<svg width="51" height="25" viewBox="0 0 51 25" fill="none" xmlns="http://www.w3.org/2000/svg">
    <g filter="url(#a)">
        <path d="M4 7.256a3 3 0 0 1 3-3h37a3 3 0 0 1 3 3v10a3 3 0 0 1-3 3H7a3 3 0 0 1-3-3v-10z" fill="#C00"/>
        <path fill-rule="evenodd" clip-rule="evenodd" d="M9.28 15.59a5.957 5.957 0 0 1 0-7.118.54.54 0 0 1 .863.647 4.871 4.871 0 0 0 0 5.823.54.54 0 0 1-.863.647zm8.735.107a.54.54 0 0 1-.107-.755 4.872 4.872 0 0 0 0-5.822.54.54 0 0 1 .862-.648 5.957 5.957 0 0 1 0 7.118.54.54 0 0 1-.755.107zm-6.803-6.183a3.767 3.767 0 0 0 0 5.033.54.54 0 0 0 .803-.72 2.691 2.691 0 0 1 0-3.594.54.54 0 0 0-.803-.719zm4.865 5.075a.54.54 0 0 1-.042-.761 2.691 2.691 0 0 0 0-3.594.54.54 0 0 1 .803-.72 3.767 3.767 0 0 1 0 5.033.54.54 0 0 1-.761.042zm-3.67-2.558a1.62 1.62 0 0 0 1.618 1.617 1.62 1.62 0 0 0 1.617-1.617 1.62 1.62 0 0 0-1.617-1.618 1.62 1.62 0 0 0-1.617 1.618z" fill="#fff"/>
        <path d="M24.684 15.256h3.687v-.972h-2.508V9.62h-1.18v5.636zm4.967 0h1.18V9.62h-1.18v5.636zm4.234 0h1.453l1.879-5.636h-1.328l-1.242 4.324h-.07L33.33 9.62h-1.324l1.879 5.636zm4.507 0h3.734v-.972h-2.555v-1.426h2.41v-.906h-2.41v-1.36h2.555V9.62h-3.734v5.636z" fill="#fff"/>
    </g>
    <defs>
        <filter id="a" x="0" y=".256" width="51" height="24" filterUnits="userSpaceOnUse" color-interpolation-filters="sRGB">
            <feFlood flood-opacity="0" result="BackgroundImageFix"/>
            <feColorMatrix in="SourceAlpha" values="0 0 0 0 0 0 0 0 0 0 0 0 0 0 0 0 0 0 127 0" result="hardAlpha"/>
            <feOffset/>
            <feGaussianBlur stdDeviation="2"/>
            <feComposite in2="hardAlpha" operator="out"/>
            <feColorMatrix values="0 0 0 0 0 0 0 0 0 0 0 0 0 0 0 0 0 0 0.25 0"/>
            <feBlend in2="BackgroundImageFix" result="effect1_dropShadow_2013:85792"/>
            <feBlend in="SourceGraphic" in2="effect1_dropShadow_2013:85792" result="shape"/>
        </filter>
    </defs>
</svg>
