<svg width="17" height="16" viewBox="0 0 17 16" fill="none" xmlns="http://www.w3.org/2000/svg">
    <path d="M15.8334 7.99996C15.8334 12.05 12.5502 15.3333 8.50008 15.3333C4.44999 15.3333 1.16675 12.05 1.16675 7.99996C1.16675 3.94987 4.44999 0.666626 8.50008 0.666626C12.5502 0.666626 15.8334 3.94987 15.8334 7.99996Z" fill="#CC0000"/>
    <path d="M12.9348 4.92707L8.99495 12.1332H6.64361L5.28845 5.48808C5.26601 5.23176 5.19421 5.03347 5.09549 4.91256C4.99228 4.78681 4.83523 4.70459 4.6333 4.67074L4.73651 4.40474H6.87695C7.1058 4.40474 7.27632 4.46277 7.3885 4.57401C7.50068 4.68041 7.57248 4.85936 7.5994 5.11085L8.34878 9.37651L10.4937 5.28979C10.5161 5.24143 10.5386 5.1979 10.552 5.14954C10.5655 5.11085 10.552 5.07699 10.552 5.0383C10.552 4.94157 10.4488 4.8255 10.3726 4.76747C10.2873 4.70943 10.1302 4.68041 9.97318 4.6659L10.0584 4.3999H12.4906C12.6521 4.3999 12.7777 4.42408 12.8675 4.48212C12.9617 4.54016 13.0111 4.61754 13.0111 4.69976C13.0021 4.74812 12.9976 4.79165 12.9842 4.8255C12.9797 4.85936 12.9617 4.89805 12.9348 4.92707Z" fill="white"/>
</svg>
